<svg xmlns="http://www.w3.org/2000/svg" width="40" height="41" viewBox="0 0 40 41"><defs><style>.a{fill:#fff;stroke:#707070;opacity:0;}.b,.d{fill:none;}.b{stroke:#8c8c8c;stroke-miterlimit:10;}.c{stroke:none;}</style></defs><g transform="translate(-142 -262.5)"><g transform="translate(142 263)"><g class="a"><rect class="c" width="40" height="40"/><rect class="d" x="0.5" y="0.5" width="39" height="39"/></g><g transform="translate(6)"><rect class="b" width="28.523" height="40" rx="0.999"/><line class="b" x2="17.811" transform="translate(5.356 6.039)"/><line class="b" x2="17.811" transform="translate(5.356 12.249)"/><g transform="translate(-631.61 -357.155)"><path class="b" d="M642.831,386.575c0,2.181,3.043,2.024,3.043,2.024a2.9,2.9,0,0,0,3.073-2.691h0c0-1.485-1.447-1.909-3.073-2.69h0c-1.455-.671-3.073-1.2-3.073-2.69h0a2.9,2.9,0,0,1,3.073-2.69s3.043-.138,3.043,2.024" transform="translate(0 0)"/><line class="b" y1="2.536" transform="translate(645.869 375.303)"/><line class="b" y2="2.495" transform="translate(645.874 388.599)"/></g></g></g></g></svg>