<svg xmlns="http://www.w3.org/2000/svg" xmlns:xlink="http://www.w3.org/1999/xlink" width="40" height="40" viewBox="0 0 40 40"><defs><style>.a{fill:#fff;opacity:0;}.a,.c{stroke:#8c8c8c;}.b{clip-path:url(#a);}.c,.f{fill:none;}.d{fill:#707070;}.e{stroke:none;}</style><clipPath id="a"><rect class="a" width="40" height="40" transform="translate(0.298 4.637)"/></clipPath></defs><g class="b" transform="translate(-0.298 -4.637)"><g transform="translate(22.398 -7.566) rotate(40)"><g class="c" transform="translate(12.308 6.637)"><rect class="e" width="13.506" height="38.662" rx="4"/><rect class="f" x="0.5" y="0.5" width="12.506" height="37.662" rx="3.5"/></g><circle class="d" cx="1.414" cy="1.414" r="1.414" transform="translate(15.259 26.45)"/><circle class="d" cx="1.414" cy="1.414" r="1.414" transform="translate(15.259 32.108)"/><circle class="d" cx="1.414" cy="1.414" r="1.414" transform="translate(15.276 37.315)"/><circle class="d" cx="1.414" cy="1.414" r="1.414" transform="translate(19.508 26.327)"/><circle class="d" cx="1.414" cy="1.414" r="1.414" transform="translate(19.508 31.985)"/><circle class="d" cx="1.414" cy="1.414" r="1.414" transform="translate(19.525 37.192)"/><g transform="translate(0.788 0.028)"><g class="c" transform="translate(13.126 12.295)"><circle class="e" cx="5.084" cy="5.084" r="5.084"/><circle class="f" cx="5.084" cy="5.084" r="4.584"/></g><g class="c" transform="translate(15.474 14.641)"><circle class="e" cx="2.737" cy="2.737" r="2.737"/><circle class="f" cx="2.737" cy="2.737" r="2.237"/></g></g></g></g></svg>