<svg xmlns="http://www.w3.org/2000/svg" width="40.69" height="42.69" viewBox="0 0 40.69 42.69"><defs><style>.a{fill:#fff;opacity:0;}.a,.b{stroke:#0079d0;stroke-width:2px;}.b,.d{fill:none;}.b{stroke-miterlimit:10;}.c{stroke:none;}</style></defs><g transform="translate(0 1)"><g class="a"><rect class="c" width="40.69" height="40.69"/><rect class="d" x="1" y="1" width="38.69" height="38.69"/></g><g transform="translate(6.104)"><rect class="b" width="29.016" height="40.69" rx="0.999"/><line class="b" x2="18.118" transform="translate(5.449 6.144)"/><line class="b" x2="18.118" transform="translate(5.449 12.46)"/><g transform="translate(11.38 18.462)"><path class="b" d="M642.831,386.726c0,2.219,3.1,2.059,3.1,2.059a2.951,2.951,0,0,0,3.126-2.737h0c0-1.511-1.472-1.942-3.126-2.736h0c-1.48-.683-3.125-1.224-3.125-2.736h0a2.95,2.95,0,0,1,3.125-2.736s3.1-.14,3.1,2.059" transform="translate(-642.797 -375.259)"/><line class="b" y1="2.58" transform="translate(3.125)"/><line class="b" y2="2.538" transform="translate(3.13 13.526)"/></g></g></g></svg>