<svg xmlns="http://www.w3.org/2000/svg" width="39.388" height="39.388" viewBox="0 0 39.388 39.388"><defs><style>.a{fill:#fff;opacity:0;}.a,.b{stroke:#0079d0;stroke-width:2px;}.b,.d{fill:none;}.b{stroke-linecap:round;stroke-miterlimit:10;}.c{stroke:none;}</style></defs><g class="a"><rect class="c" width="39.388" height="39.388"/><rect class="d" x="1" y="1" width="37.388" height="37.388"/></g><path class="b" d="M402.085,207.58a13.012,13.012,0,0,1-9.055-3.6l-9.522-9.134a11.981,11.981,0,0,1,0-17.389l1.044-1a3.554,3.554,0,0,1,4.876,0l2.593,2.49a3.231,3.231,0,0,1,0,4.686,5.528,5.528,0,0,0-.181,8.039l.078.076,4.33,4.158a6.087,6.087,0,0,0,8.353,0,3.587,3.587,0,0,1,2.542-1.069,3.5,3.5,0,0,1,2.438.963l2.594,2.493a3.231,3.231,0,0,1,0,4.683l-1.037,1a13.008,13.008,0,0,1-9.052,3.6" transform="translate(-377.273 -172.337)"/></svg>