<svg xmlns="http://www.w3.org/2000/svg" width="41" height="42.999" viewBox="0 0 41 42.999"><defs><style>.a,.c{fill:#fff;opacity:0;}.a,.b,.f{stroke:#8c8c8c;}.b,.e,.f,.h{fill:none;}.b,.e,.f{stroke-miterlimit:10;}.c{stroke:#707070;}.d{fill:#8c8c8c;stroke:rgba(0,0,0,0);fill-rule:evenodd;}.e{stroke:#f2f2f2;}.e,.f{stroke-linecap:round;}.g{stroke:none;}</style></defs><g transform="translate(-458 -256.112)"><g transform="translate(459 259.111)"><g class="a"><rect class="g" width="40" height="40"/><rect class="h" x="0.5" y="0.5" width="39" height="39"/></g><g transform="translate(-528.104 -691.447)"><path class="b" d="M567.151,726.362H529.1v-3.788l3-4.824v-19.3a2,2,0,0,1,2.005-2h28.034a2,2,0,0,1,2,2v19.592l3,4Z"/><line class="b" x2="32.043" transform="translate(532.106 717.75)"/></g></g><g transform="translate(458 256.112)"><g transform="translate(0 -0.001)"><g class="c" transform="translate(0 0.001)"><rect class="g" width="40" height="40"/><rect class="h" x="0.5" y="0.5" width="39" height="39"/></g><g transform="translate(8 0.001)"><g transform="translate(-135 -73.646)"><g transform="translate(140.324 87.545)"><path class="d" d="M148.383,100.46a1.178,1.178,0,1,1,1.166-1.191v.011a1.173,1.173,0,0,1-1.165,1.178h0" transform="translate(-141.348 -89.197)"/><path class="d" d="M154.324,90.656a.667.667,0,0,1-.668.668.7.7,0,0,1-.334-.088c-.061-.061-.123-.114-.193-.176a.145.145,0,0,0-.026-.017,9.044,9.044,0,0,0-11.557-.009l-.009.009c-.079.07-.158.132-.229.2a.652.652,0,0,1-.317.079.667.667,0,0,1-.668-.668.652.652,0,0,1,.167-.439c.036-.035.079-.071.123-.114a.031.031,0,0,1,.026-.009,10.31,10.31,0,0,1,13.341-.018,1.192,1.192,0,0,1,.194.168A.628.628,0,0,1,154.324,90.656Z" transform="translate(-140.324 -87.636)"/><path class="d" d="M151.96,94.352a.667.667,0,0,1-.668.668.652.652,0,0,1-.317-.079.861.861,0,0,0-.175-.132,5,5,0,0,0-5.941-.026c-.071.053-.15.115-.22.168-.009.009-.018.017-.026.017a.671.671,0,0,1-.932-.615.648.648,0,0,1,.167-.439c.009-.009.009-.018.026-.026.061-.053.132-.1.193-.14a.029.029,0,0,0,.018-.009,6.276,6.276,0,0,1,7.47,0l.009.009a1.217,1.217,0,0,1,.229.167A.648.648,0,0,1,151.96,94.352Z" transform="translate(-140.825 -88.362)"/></g><line class="e" x2="10.546" y2="10.546" transform="translate(142.345 87.023)"/><line class="f" x2="10.546" y2="10.546" transform="translate(141.624 87.476)"/></g></g></g></g></g></svg>